<svg width="1136" height="324" viewBox="0 0 1136 324" fill="none" xmlns="http://www.w3.org/2000/svg">
<path d="M197.736 201.6H133.224L69 0H132.36L165.48 128.16L198.6 0H261.96L197.736 201.6Z" fill="white"/>
<path d="M356.978 201.888H276.337V0.287996H333.938V57.312H356.978C377.714 57.312 395.185 63.936 409.393 77.184C423.409 90.048 430.418 107.52 430.418 129.6C430.418 151.488 423.409 169.056 409.393 182.304C395.185 195.36 377.714 201.888 356.978 201.888ZM503.858 201.888H446.258V0.287996H503.858V201.888ZM333.938 113.184V146.016H356.978C361.586 146.016 365.329 144.576 368.21 141.696C371.281 138.624 372.818 134.592 372.818 129.6C372.818 124.608 371.281 120.672 368.21 117.792C365.329 114.72 361.586 113.184 356.978 113.184H333.938Z" fill="white"/>
<path d="M590.156 126.144V148.608H665.036V201.6H532.556V0H663.596V52.416H590.156V74.304H656.396V126.144H590.156Z" fill="white"/>
<path d="M822.008 44.352L757.784 145.728H824.888V201.6H682.328V157.248L746.552 55.872H683.768V0H822.008V44.352Z" fill="white"/>
<path d="M845.025 0H928.545C956.193 0 979.425 9.696 998.241 29.088C1017.06 48.48 1026.47 72.384 1026.47 100.8C1026.47 129.408 1017.06 153.408 998.241 172.8C979.617 192 956.385 201.6 928.545 201.6H845.025V0ZM905.505 145.728H928.545C940.257 145.728 949.857 141.6 957.345 133.344C965.025 124.896 968.865 114.048 968.865 100.8C968.865 87.552 965.025 76.8 957.345 68.544C949.857 60.096 940.257 55.872 928.545 55.872H905.505V145.728Z" fill="white"/>
<path d="M1136 102.1L921.081 131.6V112.523L243.779 112.523L184.216 131.6H0L30.7027 102.1L0 72.6H184.216L243.779 91.6767L921.081 91.6767V72.6L1136 102.1Z" fill="white"/>
<path d="M366.776 283.576V298.408H405.8V322.6H341V221.8H405.08V245.848H366.776V259.816H401.48V283.576H366.776Z" fill="white"/>
<path d="M463.135 285.88L489.199 322.6H462.127L449.599 304.888L437.071 322.6H410.143L436.206 285.88L411.15 250.6H438.078L449.599 266.872L461.118 250.6H488.191L463.135 285.88Z" fill="white"/>
<path d="M540.726 250.6V273.496H525.75V294.376C525.75 297.448 526.806 299.416 528.918 300.28C531.126 301.048 535.062 301.288 540.726 301V322.6C526.518 324.328 516.438 323.032 510.486 318.712C504.726 314.2 501.846 306.28 501.846 294.952V273.496H491.046V250.6H501.846V237.64L525.75 230.44V250.6H540.726Z" fill="white"/>
<path d="M576.662 250.6V263.992C578.006 259.384 580.646 255.784 584.582 253.192C588.614 250.504 593.174 249.16 598.262 249.16V275.656C592.79 274.792 587.798 275.8 583.286 278.68C578.87 281.56 576.662 286.264 576.662 292.792V322.6H552.758V250.6H576.662Z" fill="white"/>
<path d="M628.92 240.664C626.232 243.352 623.016 244.696 619.272 244.696C615.528 244.696 612.264 243.352 609.48 240.664C606.792 237.88 605.448 234.616 605.448 230.872C605.448 227.128 606.792 223.912 609.48 221.224C612.264 218.536 615.528 217.192 619.272 217.192C623.016 217.192 626.232 218.536 628.92 221.224C631.704 223.912 633.096 227.128 633.096 230.872C633.096 234.616 631.704 237.88 628.92 240.664ZM631.224 322.6H607.32V250.6H631.224V322.6Z" fill="white"/>
<path d="M727.664 248.584C736.016 248.584 742.592 251.272 747.392 256.648C752.288 261.928 754.736 269.224 754.736 278.536V322.6H730.688V281.272C730.688 274.552 727.712 271.192 721.76 271.192C718.592 271.192 716.144 272.248 714.416 274.36C712.688 276.472 711.824 279.448 711.824 283.288V322.6H687.92V281.272C687.92 274.552 684.896 271.192 678.848 271.192C675.68 271.192 673.232 272.248 671.504 274.36C669.776 276.472 668.912 279.448 668.912 283.288V322.6H645.008V250.6H668.912V257.368C673.328 251.512 679.808 248.584 688.352 248.584C696.608 248.584 702.752 251.656 706.784 257.8C711.776 251.656 718.736 248.584 727.664 248.584Z" fill="white"/>
</svg>
