<svg width="167" height="30" viewBox="0 0 167 30" fill="none" xmlns="http://www.w3.org/2000/svg">
<path d="M28.4048 29.5578H18.9463L9.53004 0H18.8196L23.6756 18.7903L28.5315 0H37.8211L28.4048 29.5578Z" fill="white"/>
<path d="M51.7521 29.6H39.929V0.0422249H48.3741V8.40286H51.7521C54.7924 8.40286 57.354 9.37404 59.4372 11.3164C61.4921 13.2025 62.5196 15.7642 62.5196 19.0014C62.5196 22.2106 61.4921 24.7863 59.4372 26.7287C57.354 28.6429 54.7924 29.6 51.7521 29.6ZM73.2871 29.6H64.842V0.0422249H73.2871V29.6ZM48.3741 16.5946V21.4083H51.7521C52.4278 21.4083 52.9767 21.1972 53.3989 20.7749C53.8493 20.3245 54.0745 19.7333 54.0745 19.0014C54.0745 18.2695 53.8493 17.6924 53.3989 17.2702C52.9767 16.8198 52.4278 16.5946 51.7521 16.5946H48.3741Z" fill="white"/>
<path d="M85.9399 18.4947V21.7883H96.9185V29.5578H77.4948V0H96.7074V7.68503H85.9399V10.8942H95.6517V18.4947H85.9399Z" fill="white"/>
<path d="M119.933 6.50271L110.517 21.3661H120.355V29.5578H99.4537V23.0551L108.87 8.19173H99.6648V0H119.933V6.50271Z" fill="white"/>
<path d="M123.308 0H135.553C139.607 0 143.013 1.42159 145.772 4.26477C148.53 7.10794 149.91 10.6127 149.91 14.7789C149.91 18.9733 148.53 22.4921 145.772 25.3352C143.041 28.1503 139.635 29.5578 135.553 29.5578H123.308V0ZM132.175 21.3661H135.553C137.27 21.3661 138.678 20.7608 139.776 19.5504C140.902 18.3118 141.465 16.7213 141.465 14.7789C141.465 12.8365 140.902 11.2601 139.776 10.0496C138.678 8.81104 137.27 8.19173 135.553 8.19173H132.175V21.3661Z" fill="white"/>
<path d="M166.556 14.9695L135.045 19.2947V16.4977L35.742 16.4977L27.009 19.2947H0L4.50151 14.9695L0 10.6443H27.009L35.742 13.4413L135.045 13.4413V10.6443L166.556 14.9695Z" fill="white"/>
</svg>
