<svg width="958" height="202" viewBox="0 0 958 202" fill="none" xmlns="http://www.w3.org/2000/svg">
<path d="M128.736 201.6H64.224L0 0H63.36L96.48 128.16L129.6 0H192.96L128.736 201.6Z" fill="white"/>
<path d="M287.978 201.888H207.337V0.287996H264.938V57.312H287.978C308.714 57.312 326.185 63.936 340.393 77.184C354.409 90.048 361.418 107.52 361.418 129.6C361.418 151.488 354.409 169.056 340.393 182.304C326.185 195.36 308.714 201.888 287.978 201.888ZM434.858 201.888H377.258V0.287996H434.858V201.888ZM264.938 113.184V146.016H287.978C292.586 146.016 296.329 144.576 299.21 141.696C302.281 138.624 303.818 134.592 303.818 129.6C303.818 124.608 302.281 120.672 299.21 117.792C296.329 114.72 292.586 113.184 287.978 113.184H264.938Z" fill="white"/>
<path d="M521.156 126.144V148.608H596.036V201.6H463.556V0H594.596V52.416H521.156V74.304H587.396V126.144H521.156Z" fill="white"/>
<path d="M753.008 44.352L688.784 145.728H755.888V201.6H613.328V157.248L677.552 55.872H614.768V0H753.008V44.352Z" fill="white"/>
<path d="M776.025 0H859.545C887.193 0 910.425 9.696 929.241 29.088C948.057 48.48 957.465 72.384 957.465 100.8C957.465 129.408 948.057 153.408 929.241 172.8C910.617 192 887.385 201.6 859.545 201.6H776.025V0ZM836.505 145.728H859.545C871.257 145.728 880.857 141.6 888.345 133.344C896.025 124.896 899.865 114.048 899.865 100.8C899.865 87.552 896.025 76.8 888.345 68.544C880.857 60.096 871.257 55.872 859.545 55.872H836.505V145.728Z" fill="white"/>
</svg>
