<svg width="414" height="107" viewBox="0 0 414 107" fill="none" xmlns="http://www.w3.org/2000/svg">
<path d="M25.776 66.576V81.408H64.8V105.6H0V4.80002H64.08V28.848H25.776V42.816H60.48V66.576H25.776Z" fill="white"/>
<path d="M122.135 68.88L148.199 105.6H121.127L108.599 87.888L96.0705 105.6H69.1425L95.2065 68.88L70.1505 33.6H97.0785L108.599 49.872L120.118 33.6H147.191L122.135 68.88Z" fill="white"/>
<path d="M199.726 33.6V56.496H184.75V77.376C184.75 80.448 185.806 82.416 187.918 83.28C190.126 84.048 194.062 84.288 199.726 84V105.6C185.518 107.328 175.438 106.032 169.486 101.712C163.726 97.2 160.846 89.28 160.846 77.952V56.496H150.046V33.6H160.846V20.64L184.75 13.44V33.6H199.726Z" fill="white"/>
<path d="M235.662 33.6V46.992C237.006 42.384 239.646 38.784 243.582 36.192C247.614 33.504 252.174 32.16 257.262 32.16V58.656C251.79 57.792 246.798 58.8 242.286 61.68C237.87 64.56 235.662 69.264 235.662 75.792V105.6H211.758V33.6H235.662Z" fill="white"/>
<path d="M287.92 23.664C285.232 26.352 282.016 27.696 278.272 27.696C274.528 27.696 271.264 26.352 268.48 23.664C265.792 20.88 264.448 17.616 264.448 13.872C264.448 10.128 265.792 6.91202 268.48 4.22402C271.264 1.53602 274.528 0.192017 278.272 0.192017C282.016 0.192017 285.232 1.53602 287.92 4.22402C290.704 6.91202 292.096 10.128 292.096 13.872C292.096 17.616 290.704 20.88 287.92 23.664ZM290.224 105.6H266.32V33.6H290.224V105.6Z" fill="white"/>
<path d="M386.664 31.584C395.016 31.584 401.592 34.272 406.392 39.648C411.288 44.928 413.736 52.224 413.736 61.536V105.6H389.688V64.272C389.688 57.552 386.712 54.192 380.76 54.192C377.592 54.192 375.144 55.248 373.416 57.36C371.688 59.472 370.824 62.448 370.824 66.288V105.6H346.92V64.272C346.92 57.552 343.896 54.192 337.848 54.192C334.68 54.192 332.232 55.248 330.504 57.36C328.776 59.472 327.912 62.448 327.912 66.288V105.6H304.008V33.6H327.912V40.368C332.328 34.512 338.808 31.584 347.352 31.584C355.608 31.584 361.752 34.656 365.784 40.8C370.776 34.656 377.736 31.584 386.664 31.584Z" fill="white"/>
</svg>
